<svg width="17" height="17" viewBox="0 0 17 17" xmlns="http://www.w3.org/2000/svg">
  <path d="M8.49921729 0C3.8060714 0 0 3.80554959 0 8.5002609c0 3.755456 2.4352804 6.941097 5.81294699 8.0650726.42527395.0782713.58025108-.1841984.58025108-.4096197 0-.2014181-.00730532-.7362718-.01147979-1.4454096-2.36431443.5134596-2.86316338-1.1396298-2.86316338-1.1396298-.38666012-.9820437-.94395163-1.2434698-.94395163-1.2434698-.77175481-.5270266.05844256-.5165904.05844256-.5165904.85315694.060008 1.30191227.8761165 1.30191227.8761165.75818779 1.2987814 1.98965592.9236011 2.47389423.706007.07722766-.5489426.29690905-.9236011.53955002-1.1359772-1.88738145-.2144633-3.87181928-.9439516-3.87181928-4.20108046 0-.92777556.33134842-1.68700697.8750729-2.28082507-.08766383-.21498512-.37935479-1.07962184.08348937-2.24951656 0 0 .71331226-.22855214 2.33718039.87142024.67782928-.18889469 1.40523036-.28282022 2.12793517-.28647288.72218301.00365266 1.44906228.09757819 2.1279352.28647288 1.6228245-1.09997238 2.3350931-.87142024 2.3350931-.87142024.4638878 1.16989472.1721968 2.03453144.0850548 2.24951656.5447681.5938181.8735075 1.35304951.8735075 2.28082507 0 3.26547776-1.9875687 3.98400806-3.88069 4.19429696.3047362.2624697.5765984.7811473.5765984 1.5742963 0 1.1359772-.0104362 2.0527947-.0104362 2.3314405 0 .2275085.1534117.4920654.5844256.4090979C14.5668068 15.4382271 17 12.2546733 17 8.5002609 17 3.80554959 13.1939286 0 8.49921729 0" fill="#000" fill-rule="evenodd"/>
</svg>
