<svg width="50" height="50" viewBox="0 0 50 50" xmlns="http://www.w3.org/2000/svg">
  <g fill="#000" fill-rule="evenodd">
    <path d="M35.031 22.257c-3.174 0-3.615 3.168-3.615 3.168h6.7480299S38.207 22.257 35.031 22.257zm-15.31 3.168l-5.982-.0000059V30.917h5.296c.09 0 .225.002.383 0 .852-.02 2.467-.268 2.467-2.67 0-2.851-2.164-2.822-2.164-2.822z" fill-rule="nonzero"/>
    <path d="M25.348.101C11.748.101.723 11.124.723 24.724c0 13.6 11.025 24.625 24.625 24.625 13.598 0 24.623-11.025 24.623-24.625C49.971 11.125 38.945.101 25.348.101zm5.183 15.13h8.477v2.53h-8.477v-2.53zm-4.285 13.272c0 6.271-6.525 6.064-6.525 6.064H9.029V14.021h10.692c3.248 0 5.812 1.794 5.812 5.47 0 3.676-3.135 3.91-3.135 3.91 4.133 0 3.848 5.102 3.848 5.102zm15.858-.336H31.457c0 3.816 3.615 3.576 3.615 3.576 3.414 0 3.295-2.211 3.295-2.211h3.617c0 5.867-7.033 5.465-7.033 5.465-8.436 0-7.893-7.855-7.893-7.855s-.008-7.893 7.893-7.893c8.317 0 7.153 8.918 7.153 8.918z" fill-rule="nonzero"/>
    <path d="M21.174 19.81c0-2.137-1.453-2.137-1.453-2.137h-5.982v4.584h5.611c.968 0 1.824-.311 1.824-2.447z"/>
  </g>
</svg>
