<svg width="192" height="28" viewBox="0 0 192 28" xmlns="http://www.w3.org/2000/svg">
  <path d="M.94238281 7.1289062h3.12109375l-.08300781 2.4238282.06640625.0332031c.39843949-.84115.87434619-1.4388003 1.42773438-1.7929687.90755662-.5865915 2.10285716-.8798829 3.58593752-.8798829 2.7780087 0 4.3883441.9407458 4.8310547 2.8222657h.0664062c.4095073-.8632856.9075492-1.4886049 1.4941406-1.8759766.9518277-.6308625 2.2024662-.9462891 3.7519532-.9462891 2.3906369 0 3.9899048.6474545 4.7978515 1.9423829.4759139.7747434.7138672 2.0087805.7138672 3.7021484V23h-3.1210937V12.8896484c0-1.0625053-.1162098-1.8372371-.3486328-2.3242187-.3541685-.7194047-1.2617115-1.0791016-2.7226563-1.0791016-2.0364685 0-3.2981746.5257109-3.7851562 1.5771485-.2434909.5312526-.3652344 1.4332618-.3652344 2.7060546V23h-3.1210938V12.9228516c-.044271-1.2949284-.1383456-2.0807278-.2822265-2.3574219-.3652362-.7194047-1.2949144-1.0791016-2.78906254-1.0791016-1.79297771 0-2.98274446.5091095-3.56933594 1.5273438-.3652362.6197947-.54785156 1.5771419-.54785156 2.8720703V23H.94238281V7.1289062zm31.49433599 4.5322266h-3.1376954c.0110678-1.4166737.2158184-2.4348927.6142579-3.0546875.3873717-.608727 1.0790965-1.0569647 2.0751953-1.3447265.84115-.2324231 2.1360589-.3486329 3.8847656-.3486329 2.1139429 0 3.6357375.221352 4.5654297.6640625 1.0846408.5201849 1.7597643 1.3004506 2.0253906 2.3408204.188152.7304724.2822266 1.621414.2822266 2.6728515V23h-3.1210938l.1826172-1.9423828-.0830078-.0332031c-.3541684.6640658-.7858047 1.1510401-1.2949219 1.4609375-.4869816.2988296-.9960911.4869787-1.5273437.5644531-.6862014.1106776-1.4775346.1660156-2.3740235.1660156-1.3945382 0-2.4570276-.1217436-3.1875-.3652344-1.1731829-.3763039-1.9479147-1.0680288-2.3242187-2.0751953-.2545586-.6751336-.381836-1.4664668-.381836-2.3740234 0-1.9589942.4537716-3.2926397 1.3613282-4.0009766.9075566-.7083369 2.4348851-1.0625 4.5820312-1.0625 1.7044356 0 2.9938108.1826154 3.8681641.5478516.4537783.188152.8245428.5810517 1.1123047 1.1787109l.0664062-.0166015v-2.241211c0-1.1842507-.1438787-2.0641247-.4316406-2.6396484-.2213553-.4427106-.6529916-.7415357-1.2949219-.8964844-.4759138-.1106776-1.1123007-.1660156-1.9091797-.1660156-1.1399796 0-1.9755832.0996084-2.5068359.2988281-.5755237.2213553-.9130854.6751268-1.0126953 1.3613281-.0221355.2102875-.0332031.4316395-.0332031.6640625v.2324219zM35.6740234 15.5625c-1.6601645 0-2.7447891.2047506-3.2539062.6142578-.376304.2988296-.5644531.9296827-.5644531 1.8925781 0 1.0403698.1936829 1.7486961.5810547 2.125.4427105.4316428 1.4775309.647461 3.1044921.647461 1.7597745 0 2.9440074-.2545548 3.5527344-.7636719.4095073-.3320329.6142578-.9407508.6142578-1.8261719 0-.9628954-.2047505-1.6214175-.6142578-1.9755859-.5533882-.4759139-1.6933507-.7138672-3.4199219-.7138672zM50.2015625.3388672v13.0488281h1.0292969l4.8974609-6.2587891h3.71875L53.7210938 14.5l7.2880859 8.5h-3.9677734l-5.8935547-7.3378906h-.9462891V23h-3.1210937V.3388672h3.1210937zm23.3595703 17.7138672h3.1376954v.5146484c0 1.6269613-.4316363 2.7779914-1.2949219 3.453125-1.0182343.796879-2.8665231 1.1953125-5.5449219 1.1953125-1.870452 0-3.2705032-.166014-4.2001953-.4980469-.7636757-.2766941-1.3447246-.6308572-1.7431641-1.0625-.7083368-.7526079-1.1455069-1.8483001-1.3115234-3.2871093-.1217454-1.0293021-.1826172-2.158197-.1826172-3.3867188 0-2.3574336.221352-4.0673775.6640625-5.1298828.4648461-1.1178441 1.2561793-1.9091774 2.3740234-2.3740234.9296922-.376304 2.3795475-.5644532 4.3496094-.5644532 2.0696718 0 3.5803989.2600886 4.5322266.7802735 1.3834704.7526079 2.1526685 2.4182814 2.3076172 4.9970703.0332033.5533882.0498047 1.5328706.0498047 2.9384765H65.625586c0 1.0735731.0442704 1.9257781.1328125 2.5566407.1106776.8522178.3375634 1.4554018.680664 1.8095703.5091172.5201849 1.5882079.7802734 3.2373047.7802734 1.9921975 0 3.1708966-.2711561 3.5361328-.8134765.2324231-.3320329.3486328-.9684198.3486328-1.9091797zm.0166016-4.5322266c-.0332033-1.4720126-.1328117-2.4293598-.2988281-2.8720703-.2324231-.608727-.7304649-1.0071605-1.4941406-1.1953125-.4316428-.1106776-1.1178339-.1660156-2.0585938-.1660156-1.2285218 0-2.102862.1051422-2.6230469.3154297-.7858112.3209651-1.2451165 1.1233659-1.3779297 2.4072265-.044271.3320329-.0664062.8356086-.0664062 1.5107422h7.9189453zm38.3646486-6.3916016h3.121094l-.083008 2.4238282.066406.0332031c.398439-.84115.874346-1.4388003 1.427734-1.7929687.907557-.5865915 2.102858-.8798829 3.585938-.8798829 2.778009 0 4.388344.9407458 4.831055 2.8222657h.066406c.409507-.8632856.907549-1.4886049 1.49414-1.8759766.951828-.6308625 2.202467-.9462891 3.751954-.9462891 2.390637 0 3.989904.6474545 4.797851 1.9423829.475914.7747434.713867 2.0087805.713867 3.7021484V23h-3.121093V12.8896484c0-1.0625053-.11621-1.8372371-.348633-2.3242187-.354169-.7194047-1.261712-1.0791016-2.722656-1.0791016-2.036469 0-3.298175.5257109-3.785157 1.5771485-.243491.5312526-.365234 1.4332618-.365234 2.7060546V23h-3.121094V12.9228516c-.044271-1.2949284-.138346-2.0807278-.282226-2.3574219-.365237-.7194047-1.294915-1.0791016-2.789063-1.0791016-1.792978 0-2.982744.5091095-3.569336 1.5273438-.365236.6197947-.547851 1.5771419-.547851 2.8720703V23h-3.121094V7.1289062zm31.494336 4.5322266h-3.137696c.011068-1.4166737.215819-2.4348927.614258-3.0546875.387372-.608727 1.079097-1.0569647 2.075196-1.3447265.84115-.2324231 2.136059-.3486329 3.884765-.3486329 2.113943 0 3.635738.221352 4.56543.6640625 1.084641.5201849 1.759764 1.3004506 2.025391 2.3408204.188151.7304724.282226 1.621414.282226 2.6728515V23h-3.121094l.182618-1.9423828-.083008-.0332031c-.354169.6640658-.785805 1.1510401-1.294922 1.4609375-.486982.2988296-.996091.4869787-1.527344.5644531-.686201.1106776-1.477535.1660156-2.374023.1660156-1.394539 0-2.457028-.1217436-3.1875-.3652344-1.173183-.3763039-1.947915-1.0680288-2.324219-2.0751953-.254559-.6751336-.381836-1.4664668-.381836-2.3740234 0-1.9589942.453771-3.2926397 1.361328-4.0009766.907557-.7083369 2.434885-1.0625 4.582031-1.0625 1.704436 0 2.993811.1826154 3.868164.5478516.453779.188152.824543.5810517 1.112305 1.1787109l.066406-.0166015v-2.241211c0-1.1842507-.143878-2.0641247-.43164-2.6396484-.221356-.4427106-.652992-.7415357-1.294922-.8964844-.475914-.1106776-1.112301-.1660156-1.90918-.1660156-1.13998 0-1.975583.0996084-2.506836.2988281-.575524.2213553-.913085.6751268-1.012695 1.3613281-.022136.2102875-.033203.4316395-.033203.6640625v.2324219zm3.237304 3.9013672c-1.660164 0-2.744789.2047506-3.253906.6142578-.376304.2988296-.564453.9296827-.564453 1.8925781 0 1.0403698.193683 1.7486961.581055 2.125.44271.4316428 1.477531.647461 3.104492.647461 1.759774 0 2.944007-.2545548 3.552734-.7636719.409508-.3320329.614258-.9407508.614258-1.8261719 0-.9628954-.20475-1.6214175-.614258-1.9755859-.553388-.4759139-1.69335-.7138672-3.419922-.7138672zm20.80293-8.4335938v2.4404297h-6.092773v8.7822266c0 .9296921.127277 1.566079.381836 1.9091797.232423.3209651.741532.4814453 1.527343.4814453.830083 0 1.388996-.1826154 1.676758-.5478516.287762-.3431006.431641-1.1067649.431641-2.2910156 0-.1660164-.011068-.426105-.033203-.7802734h2.722656c.011068.5201849.016602.902017.016602 1.1455078 0 1.5605547-.282224 2.7226524-.84668 3.4863281-.453778.608727-1.045895 1.0071605-1.776367 1.1953125-.708337.1770842-1.49967.265625-2.374024.265625-1.58269 0-2.717119-.2268857-3.40332-.6806641-.807947-.5423204-1.272786-1.3668564-1.394531-2.4736328-.033204-.2656263-.049805-.7359992-.049805-1.4111328V9.5693359h-2.125V7.1289062h2.125V3.4433594h3.121094v3.6855468h6.092773zM173.5875.3388672v2.9550781h-3.121094V.3388672h3.121094zm0 6.790039V23h-3.121094V7.1289062h3.121094zm14.693555 9.9609376h3.104492c.011068.3763039.016601.6474601.016601.8134765 0 1.9479264-.492508 3.3258423-1.477539 4.1337891-.619794.5201849-1.388992.846679-2.307617.9794922-.896489.1328131-1.914708.1992187-3.054687.1992187-1.748707 0-3.054683-.1494126-3.917969-.4482422-1.261725-.4316428-2.152667-1.2285098-2.672852-2.390625-.464846-1.0403698-.697265-2.8443882-.697265-5.4121093 0-2.1803495.188149-3.7740836.564453-4.78125.431643-1.1842508 1.173172-2.0364558 2.224609-2.5566407.951828-.4759138 2.412751-.7138672 4.382813-.7138672 2.080739 0 3.641271.2711562 4.68164.8134766 1.095709.5644559 1.73763 1.6269453 1.925782 3.1875.055338.3984395.083007.935218.083007 1.6103516h-3.08789c.011068-.9296922-.099608-1.6103494-.332031-2.0419922-.232423-.420575-.636391-.7083326-1.211914-.8632813-.49805-.1328131-1.217444-.1992187-2.158204-.1992187-1.571622 0-2.606442.2711561-3.104492.8134765-.509117.5533882-.763672 2.2024603-.763672 4.9472657 0 2.3574336.260089 3.9068973.780274 4.6484375.398439.5755237 1.577138.8632812 3.536133.8632812 1.018234 0 1.792966-.1051422 2.324218-.3154297.509117-.1992197.841145-.5865856.996094-1.1621093.121746-.4427106.182617-1.0680299.182617-1.8759766 0-.0332033-.005534-.1162103-.016601-.2490234zm-99.2204504-2.8055835c.5049565-6.07263289 6.2875019-5.76612511 7.2957156-7.30891582 1.9176608-2.93416835 1.0587452-4.9565486-.6421932-5.62523098-4.9364119-1.94056929-3.9466522 3.76854364-7.5416288 6.06242173-1.9926087 1.27144418-6.1459321.1885304-6.9046979 4.31585517-.8757231 4.7635947 4.330109 4.3091959 5.0390578 6.8141851.6680552 2.3605145-1.6653798 5.188928 1.086062 7.6078767 3.1251859 2.7476012 6.5740139-.6665063 6.3440626-3.6419835-.123965-1.6036948-1.0066753-2.8651325-2.0544389-3.8318814-1.3109563-1.209463-2.8117424-2.1102021-2.6219392-4.392327zm8.5711262-4.85548641c.3474878 1.42531611 2.7214232 3.26901081 1.5418379 5.97565701-.6764335 1.5520603-3.1824396 2.5375734-3.9822976 4.4204753-.3262065.7678385-.6200989 2.7310646.4886531 3.4916938 4.6324388 3.1779418 5.5491778-2.3985537 6.1764768-3.1674131 1.517537-1.859912 3.765823-.8978705 4.409652-3.7479723.665436-2.9461085-2.699193-3.0315195-2.847578-4.8410504-.08154-.9934262.777202-3.80419161-.136777-4.90746972-2.612309-3.15330397-6.358105-.12920362-5.6499672 2.7760794z" fill="currentColor" fill-rule="evenodd"/>
</svg>
