<svg width="52" height="48" viewBox="0 0 66 60" xmlns="http://www.w3.org/2000/svg">
  <g fill="#FFF" fill-rule="nonzero">
    <path d="M63.1428571 51.8571429c-2 1.3571428-3.9285714 2.9285714-5.9285714 4.4285714C53 49.8571429 46.7857143 45.5714286 40.2857143 41.5714286c.7857143-1.2142857 1.6428571-2.5 2.6428571-3.1428572C45.2142857 37.0714286 47.3571429 40 49 41.2142857 51.2857143 42.9285714 53.6428571 44.4285714 56 46c2.2142857 1.5 4.4285714 3.2857143 6.9285714 4.2142857.5714286.2142857 1.3571429-.4285714.8571429-1-2.3571429-2.9285714-6.0714286-5-9.1428572-7.2142857C52 40.0714286 49.5 37.8571429 46.7857143 36.0714286 44.8571429 34.8571429 43.3571429 35 42.1428571 35.7142857 43.3571429 34.3571429 44.5 33 45.5714286 31.5714286c.1428571.0714285.3571428.2142857.5.2857143.8571428.5 1.7857143-.7857143.9285714-1.2857143-.2142857-.0714286-.3571429-.2142857-.5714286-.2857143.2857143-.4285714.5-.7857143.7857143-1.2142857.1428572-.2857143.1428572-.5714286 0-.7857143.4285714-.2142857.5714286-.9285714 0-1.2142857-2.2142857-1.0714286-4-2.7142857-6-4-.7857143-.5-1.2857143-.7142857-2.2142857-.6428572-1 .1428572-2.0714286.5714286-3.0714286 1.1428572C36.0714286 23.2857143 36.1428571 23 36 22.7857143c-.7142857-1.5-2.3571429-2.1428572-3.7142857-3-.9285714-.5714286-1.8571429-1.2142857-2.8571429-1.7857143.9285715-.7857143-.0714285-2.6428571-1.3571428-2.1428571-.2857143.0714285-.5.2142857-.7857143.3571428-.8571429-.9285714-2-1.3571428-3.1428572-2C23.4285714 13.8571429 22.7142857 13.5 22 13.0714286 24.8571429 11.5 27.3571429 9.42857143 30.3571429 8.07142857 33.9285714 6.42857143 37.6428571 5.28571429 41.5 4.42857143c1.4285714-.35714286 1.2142857-2.64285714-.2857143-2.35714286-.3571428.07142857-.6428571.14285714-1 .21428572-.0714286-.35714286-.4285714-.71428572-.9285714-.85714286-7.0714286-2-15.7857143 0-22.3571429 3-3.5 1.64285714-6.8571428 3.78571428-9.71428569 6.28571427C4.71428571 12.9285714 1.5 15.9285714.5 19.1428571v.0714286c0 .0714286-.07142857.2142857-.07142857.2857143-.07142857.3571429.14285714.5714286.42857143.5714286 2.07142857 2.6428571 5.64285714 4.5 7.92857143 7 .5.5714285 1.64285711.7142857 2.07142861-.0714286 1.2857142-2.1428571 2.7857142-3.7142857 4.7857142-5.0714286.1428572.1428572.2142858.2142857.3571429.3571429.5.6428571 1.0714286 1.4285714 1.7857143 1.7857143.2142857.1428571.4285714.2857143.6428571.2857143C18.8571429 25.7142857 20 26.5 21 27.5714286c1.1428571 1.1428571 2.7142857 3.3571428 4.4285714 3.7857143.6428572.1428571 1.2142857.0714285 1.7857143-.1428572C20.7857143 37.0714286 13.8571429 42.5 7.14285714 48.1428571c-.71428571.6428572-.85714285 1.7857143 0 2.4285715C10.2142857 52.7857143 13.2142857 55.3571429 16.5 57.1428571 17.8571429 57.8571429 18.9285714 56 17.9285714 55c-2.2142857-2.1428571-4.8571428-3.9285714-7.3571428-5.7142857.1428571-.0714286.2142857-.2142857.3571428-.2857143.9285715 1.2857143 2.6428572 2.0714286 3.9285715 2.9285714C16.4285714 53 17.9285714 54.0714286 19.5 55.0714286c-.2857143.4285714-.5.7857143-.6428571 1.2142857-.3571429.7857143.5 1.9285714 1.3571428 1.4285714 2.7142857-1.3571428 4.5714286-3.8571428 6.5714286-6.0714286C29 49.2857143 31.2142857 46.9285714 33.4285714 44.5714286c1.6428572-1.7857143 3.4285715-3.5 5.2142857-5.3571429-.4285714.5714286-.8571428 1.0714286-1.2857142 1.6428572-.5714286.7142857-.5 1.6428571.2857142 2.1428571 6.8571429 4.1428571 13.9285715 8.5714286 18 15.6428571C56.0714286 59.4285714 57 59.5 57.6428571 59c2.3571429-1.7857143 4.7857143-3.5 7-5.3571429 1.4285715-1-.2142857-2.6428571-1.5-1.7857142zM36.4285714 37.2142857c-.0714285-.0714286-.1428571-.1428571-.2142857-.2142857-2.2857143-1.2142857-4.5714286-2.3571429-6.8571428-3.5714286.1428571-.1428571.2857142-.2142857.3571428-.3571428.6428572-.5714286 1.2142857-1.1428572 1.8571429-1.7857143 2.3571428 1.0714286 4.5714285 2.4285714 6.6428571 4C37.5714286 36 37 36.6428571 36.4285714 37.2142857zm-2.3571428 2.5714286c-2.2857143-1.5-4.9285715-2.7857143-7.3571429-4 .5714286-.5 1.1428572-1 1.7142857-1.5C30.7142857 35.6428571 33 37.0714286 35.2857143 38.5c-.3571429.4285714-.7857143.8571429-1.2142857 1.2857143zm-1.8571429 2l-.9285714.9285714C28.9285714 41.1428571 26.5 39.5714286 24 38.1428571c.5714286-.5 1.1428571-1 1.6428571-1.4285714 2.2857143 1.5 4.6428572 3.1428572 7.0714286 4.5-.1428571.1428572-.3571428.3571429-.5.5714286zm-3.3571428 3.3571428c-1.1428572-.7857142-2.4285715-1.3571428-3.6428572-2.0714285-1.4285714-.7857143-2.8571428-1.5714286-4.2857143-2.3571429.6428572-.5714286 1.3571429-1.1428571 2-1.7142857 2.2857143 1.7142857 4.7142857 3.3571429 7.1428572 4.9285714-.4285715.4285715-.7857143.8571429-1.2142857 1.2142857zm10.7142857-11.2142857c-2.1428572-1.5-4.5-2.7142857-7-3.5714285.5714285-.5 1.0714285-1.0714286 1.6428571-1.5714286 2.0714286 1.4285714 4.4285714 2.7142857 6.7142857 3.8571428C40.5 33 40 33.5 39.5714286 33.9285714zM42.5 31.1428571c-2.2857143-1.2857142-4.7142857-2.5-7.1428571-3.4285714.5714285-.5 1.2142857-1 1.7857142-1.4285714 2.0714286 1.4285714 4.1428572 2.7142857 6.2857143 4-.2857143.2857143-.5714285.5714286-.9285714.8571428zm-.2142857-4.3571428c1.2142857.7142857 2.5 1.1428571 3.8571428 1.4285714-.5.3571429-.9285714.6428572-1.4285714 1C42.5 28 40.2857143 26.7857143 38 25.6428571c1.9285714-1 2.3571429.0714286 4.2857143 1.1428572zm-26.7857143-7.5c-.0714286 0-.2142857.0714286-.2857143.0714286-.1428571 0-.3571428.0714285-.5.1428571-2.2142857 1.0714286-4 2.7142857-5.28571427 4.7857143-2.21428572-1.8571429-4.64285714-4.0714286-7.35714286-5 2.21428572-2 3.92857143-4.5714286 6.21428572-6.5C11.0714286 10.4285714 14.2142857 8.5 17.5714286 7c5.8571428-2.57142857 11.3571428-3.21428571 17.2857143-3.21428571C29.4285714 5.5 23.9285714 8.14285714 20.7857143 12.3571429c0 0 0 .0714285-.0714286.0714285-.8571428-.5714285-2.2857143 1-1.1428571 1.7142857 1.0714285.6428572 2.0714285 1.3571429 3.1428571 2 .6428572.4285715 1.3571429.9285715 2 1.3571429-2.1428571 1.2142857-4.2142857 2.7142857-5.9285714 4.3571429C18.4285714 21.5 18 21.1428571 17.7142857 20.7857143c-.5-.5714286-1.2142857-1.7142857-2.2142857-1.5zm9.2857143 8.0714286C23.5 26.1428571 22.0714286 24.2857143 20.4285714 23.5c1.2142857-.8571429 2.3571429-1.7142857 3.6428572-2.5 1.0714285-.6428571 2.1428571-1.2142857 3.2857143-1.7142857 1.1428571 1 2.5 1.7857143 3.6428571 2.6428571 1.2857143.9285715 2.5714286 2.2142857 4.2142857 2.2857143-.4285714.3571429-.8571428.6428572-1.3571428 1C34.2142857 24 32.5714286 22.7857143 31.4285714 23.8571429c-1 .8571428-1.9285714 1.7857142-2.8571428 2.6428571-.4285715.4285714-.9285715 1-1.4285715 1.3571429-1.1428571.7857142-1.4285714.4285714-2.3571428-.5zm-8.2142857 23.2142857c-1.2857143-.7857143-2.7142857-2.1428572-4.2142857-2.6428572.6428571-.5 1.2142857-1 1.8571428-1.5 1.0714286.7142857 2.2857143 1.2142857 3.4285714 1.8571429 1.5714286.9285714 3.1428572 1.8571428 4.6428572 2.8571428.2142857.1428572.4285714.1428572.6428571.0714286-.7142857.7142857-1.4285714 1.4285714-2.0714285 2.2142857-1.4285715-1-2.9285715-1.9285714-4.2857143-2.8571428zm6.7857143.2142857C23.5 50.4285714 23.4285714 50 23.0714286 49.7142857c-2.2142857-1.5714286-4.9285715-3.4285714-7.7142857-4.3571428C15.9285714 44.9285714 16.4285714 44.4285714 17 44c1.0714286.7857143 2.2857143 1.4285714 3.3571429 2.1428571 1.5 1 2.9285714 2.1428572 4.5714285 3-.5.5714286-1.0714285 1.0714286-1.5714285 1.6428572zM26 48.0714286c-1.3571429-1.2857143-3-2.2142857-4.5714286-3.1428572-1.0714285-.6428571-2.2142857-1.2857143-3.3571428-1.8571428.5-.4285715 1.0714285-.8571429 1.5714285-1.2857143 1.5 1 3.0714286 1.9285714 4.6428572 2.8571428C25.3571429 45.2857143 26.3571429 46 27.5 46.5714286l-1.5 1.5z"/>
    <path d="M37 16.0714286c2.2142857 3.8571428 7.0714286 6.8571428 10.5 9.7857143 2.2142857 1.9285714 5.5714286 6.4285714 8.9285714 6.0714285 2.2857143-.2142857 3.2857143-2.5 4.2142857-4.3571428 1.6428572-3.2857143 3.5-7.2857143 3.5714286-11 0-1.2142857-1.7142857-1.3571429-2.2142857-.4285715-1.3571429 2.7142858-1.8571429 5.7142858-3.0714286 8.5-.3571428.7142858-1.4285714 3.5714286-2 3.9285715-1.6428571 1-4-1.7142857-5.0714285-2.5714286-2.3571429-1.9285714-4.7857143-3.8571429-7.1428572-5.7857143-2.1428571-1.7857143-4.2857143-4-6.9285714-5-.5714286-.0714286-1 .4285714-.7857143.8571429z"/>
    <path d="M63.9285714 9.64285714C59.8571429 11.6428571 59.0714286 17.7142857 53.5 15.5c-.7857143-.2857143-2.2142857-.7857143-2.7142857-1.3571429C49.5 12.5714286 51.4285714 11.8571429 52.5714286 11c2.2857143-1.71428571 4.6428571-3.35714286 6.8571428-5.14285714.6428572-.5.5714286-1.64285715-.0714285-2.07142857C58.1428571 2.92857143 56.9285714 2 55.7857143 1.07142857 55.4285714.78571429 55 .85714286 54.6428571 1c-6.5714285 2.71428571-14 6.64285714-18.5 12.3571429-.3571428.4285714.2857143 1.1428571.7857143.7857142 3.5-2.3571428 6.7142857-5.21428567 10.4285715-7.28571424 1.5714285-.92857143 3.2142857-1.71428572 4.9285714-2.42857143 2.1428571-.92857143 2.9285714-.85714286 4.2857143.28571428-1.9285715 1.35714286-3.8571429 2.71428572-5.7142857 4.07142858C49.6428571 9.64285714 47.7857143 10.5714286 47.0714286 12 46 14.3571429 48 15.6428571 49.7857143 16.6428571c2.5 1.3571429 5.7142857 3 8.6428571 1.9285715C61.2857143 17.5 63.5 13.7142857 65.2857143 11.4285714 65.8571429 10.6428571 65 9.07142857 63.9285714 9.64285714z"/>
    <path d="M47.2857143 16.2142857c-1.3571429-.5-2.8571429 1.1428572-3.0714286 2.3571429-.0714286.3571428.2142857.7857143.5.9285714.3571429.2142857.7142857.1428571 1.0714286-.1428571.1428571-.1428572.3571428-.2857143.5-.4285715.0714286-.0714285.1428571-.1428571.2142857-.2142857 0 0 .2857143-.2142857.1428571-.1428571.2142858-.1428572.4285715-.2142857.6428572-.3571429.2857143-.2142857.4285714-.4285714.5714286-.7857143.2142857-.4285714-.1428572-1.0714285-.5714286-1.2142857zM49.5714286 18.5c-.2142857.1428571-.4285715.4285714-.6428572.6428571-.2142857.2142858-.3571428.4285715-.5.6428572-.3571428.4285714-.5714285 1-.7857143 1.5-.2142857.5714286.6428572.8571428.8571429.3571428.2142857-.4285714.4285714-.8571428.7857143-1.1428571.3571428-.3571429.7142857-.5 1.1428571-.7857143.8571429-.5714286-.0714285-1.7857143-.8571428-1.2142857zM50.0714286 23.8571429c.2142857.2142857.7142857.1428571.8571428-.1428572.2857143-.4285714.3571429-.9285714.6428572-1.4285714.2857143-.5.7857143-.6428572 1.2857143-.9285714 1-.6428572.2142857-2.2142858-.8571429-2-1.7142857.2857142-3.4285714 3.1428571-1.9285714 4.5z"/>
  </g>
</svg>
