<svg width="52" height="52" viewBox="0 0 60 60" xmlns="http://www.w3.org/2000/svg">
  <g fill="#FFF" fill-rule="nonzero">
    <path d="M50.0668402 23.8033671c-1.010133.8158282.3787999 2.5102407 1.3889328 1.6944125 3.4091988-2.6985088 6.1870645-5.8363097 8.3967304-9.6016708.5050664-.8785843-.3787999-1.7571685-1.2626663-1.5689005-1.9571326.4392922-3.9773985.8158283-5.9345312 1.2551204-.7575997.125512-3.4091987 1.0040963-4.0405318.8158282-1.3889329-.4392921-1.199533-1.9454365-.9469997-2.9495328.8838663-3.76536111.820733-7.40521018-.1893999-11.10781526-.1262667-.50204814-.6944665-.62756018-1.010133-.37653611-.3156666-.18826805-.7575997-.12551203-1.1363996.18826806-2.840999 2.38472869-5.681998 4.70670137-8.5229969 7.02867405-1.4520662-3.01228888-3.2829322-5.89906572-5.2400648-8.59757451-.5681998-.81582824-2.0833993-.81582824-2.4621991.25102407-.5050665 1.56890046-1.1363996 3.13780092-1.7045994 4.7694574-.3156666.81582823-.5050665 1.94543656-.9469997 2.69850878-.6944664 1.12960833.1893999.87858426-.8838663.81582824-1.3889329-.06275602-3.7248654-1.94543657-4.9243983-2.51024073-1.830866-.94134028-3.5985987-1.88268055-5.4294647-2.82402083-1.0732663-.50204814-2.0833992.75307222-1.6414661 1.75716852 1.4520662 3.38882499 2.3359325 6.84040602 2.9672656 10.41749902.1262667.7530722 1.3889329.7530722 1.4520662-.062756.0631333-2.8867768-.3156666-5.5852856-1.010133-8.28379442 1.6414661.87858426 3.2829322 1.75716851 4.9243982 2.63575282 1.2626663.6903162 3.2829322 2.3847286 4.9875316 2.0709486 1.4520661-.3137801 1.830866-1.7571686 2.2727992-2.94953291.6313331-1.63165647 1.1995329-3.32606897 1.7677327-4.95772544 1.5151994 2.32197268 2.9041323 4.76945739 4.2299318 7.27969815.3787998.6903162 1.2626662 1.2551203 2.0202659.6275602 3.0935322-2.63575281 6.2501978-5.20874956 9.4068633-7.84450233.3156666 3.13780091-.0631333 6.08733373-.820733 9.22513473-.3156666 1.3178763-.8207331 2.7612648.2525332 3.8908731.9469997 1.0668523 2.3359325.9413403 3.5985987.7530722 2.3359325-.3137801 4.671865-.8785842 7.0077975-1.3806324-1.9571326 2.6357528-4.1036652 4.8949694-6.5658643 6.840406zM6.47431652 51.1812783c4.17517908-2.3201004 8.47499038-4.1385574 13.02406608-5.5180766.8101093 4.4520845 1.5579026 8.9668744 2.4303281 13.4189589.1869483 1.0659921 1.4955865 1.1914029 2.1187476.4389379 2.7419086-3.4487978 5.4215011-6.8975957 8.1010937-10.3463935 1.9317992 2.570922 3.9259146 5.0791386 5.92003 7.5873552.5608449.6270542 1.4332704-.1254108.9970577-.8151704-1.9941154-3.0725653-4.0505469-6.0824253-6.1692945-9.0295798-.3738966-.5643487-1.184006-.4389379-1.5579026 0-2.5549603 3.0725654-5.1099207 6.1451307-7.6025649 9.2176961-.7477932-4.0131466-1.4955865-8.0262932-2.2433798-12.0394398-.1246322-.752465-.8101093-1.1286975-1.4955865-.9405812-3.9882307 1.1286975-7.7895132 2.6336274-11.5284795 4.4520845 1.43327042-3.1352708 2.928857-6.2078361 4.3621274-9.3431069.623161-1.3168137-1.4332704-2.1946896-2.0564315-.8778758-1.93179927 4.075852-3.86359854 8.2144094-5.79539781 12.2902614-.37389663.9405812.62316106 2.0065733 1.49558653 1.50493zM.78632367 33.0028136c3.06738962.8702972 6.07343145 1.8027585 9.20216887 2.4865635 1.22695586.2486564 1.77908596-1.8027585.55213016-2.2379071-1.90178159-.6216409-3.80356316-1.1811177-5.70534473-1.6784304 2.76065066-1.1811177 5.52130133-2.1757431 8.40464753-2.9838762.8588691-.2486564 1.2269559-1.1811177.6748258-1.9892508-2.6993029-3.7920094-5.45995357-7.5840188-8.95677774-10.6300591 3.00604183.1864923 5.95073584.3729846 8.95677774.4973127.9202168.0621641 1.1042602-1.3054458.1226955-1.429774-4.29434543-.5594768-8.52734311-.9946254-12.82168858-1.5541022-1.16560806-.1864922-1.6563904 1.5541022-.73617351 2.1757431 4.35569326 2.9217121 7.54577847 6.9002137 10.55182029 11.1273717-3.49682416 1.0567895-6.99364833 2.3622354-10.30642912 3.9785016-.8588691.4351487-1.04291248 1.9892509.06134779 2.2379072zM59.5039973 32.6492617c-3.4720192-2.3066393-6.8797418-4.6756203-10.4160576-6.7952349-1.0287464-.623416-2.3146795.9974657-1.285933 1.745565 2.6361627 1.9325897 5.4009187 3.6781546 8.1656747 5.4860612-3.2148326.6857576-6.4296651 1.3715153-9.6444977 1.9949313-.7715598.1870248-.9001532 1.0598073-.6429665 1.6208817 1.9288995 3.8028379 4.050689 7.5433342 6.3653685 11.0968056-3.5363159-2.1196145-7.2655217-3.8651795-11.1876174-5.1743531-.5786699-.1870249-1.0930431.3740496-1.1573397.8727824-.1285934 3.3041051-.2571867 6.6082101-.5143733 9.8499735-.0642966.7480993 1.0930431.6857577 1.1573398-.0623416.3214832-2.8677138.6429665-5.7354276 1.0287464-8.6031414 4.9508422 2.1196146 9.6444977 4.5509371 14.0166701 7.730359.8358564.623416 2.1217895-.4987329 1.5431196-1.3715153-3.2791292-4.5509372-6.1724786-9.2265575-8.680048-14.2138859 3.6006125-.7480992 7.2655217-1.4961985 10.8661341-2.1819561 1.0287465-.1870248 1.1573398-1.4961985.38578-1.9949314zM25.9165123 41.1144207c.9442049 2.8033152 4.2174485 3.6508291 6.6723812 2.4121549 2.0772508-1.043094 3.7768196-3.9116025 2.4549327-6.258564-1.4477808-2.4121549-4.0915545-1.9558013-6.2317523-.9127073-2.2031447.1303868-3.6509255 2.5425417-2.8955616 4.7591164zm1.7625158-2.086188c.2517879.1303868.5665229.1955802.8812579.0651934-.188841.3911603.3776819.8475139.6924169.4563536.5665229-.521547 1.1330459-1.043094 1.6995688-1.6298343.4406289-.1303868.8812579-.1303868 1.3218868 0-1.2589398 1.1082873-2.3919857 2.3469615-3.4620846 3.7160223-.3147349-.1955801-.6294699-.3911602-.8812579-.7171271-.3147349-.5867404-.4406289-1.3038675-.2517879-1.8906079zm4.5951304 2.2165748c-.5665229.4563536-1.2589398.7171271-1.9513567.7171271.9442049-1.1082874 1.9513567-2.086188 3.0844026-2.9337019.062947.7823205-.5035759 1.7602212-1.1330459 2.2165748z"/>
    <path d="M29.4909692 33.1973822v.3200977c0 .2560781.3001483.6401953.540267.6401953.9004451.0640196 1.7408605.0640196 2.6413056.1280391.360178 0 .720356-.1920586.7803857-.5761758.6002967-3.2009767 1.1405638-6.4019534 1.4407121-9.6029301.2401187-2.4967618.9604748-5.7617581.4202077-8.2585199-.7803857-3.713133-5.4627001-2.2406837-7.8038573-1.1523516-.8404154.3841172-.6603264 1.4724493-.0600297 1.7925469.1200594.6401954.2401187 1.2803907.3601781 1.9205861-.1800891.1920586-.3601781.3841172-.5402671.6401953-.4202077.5121563.3001484 1.2803907.7803857.8322539h.0600297c.3001484 1.792547.5402671 3.5210744.7803857 5.3136214-.4202077.2560781-.180089.7682344.1200594.8962734.1200593 1.0243126.2401187 2.1126447.360178 3.1369572v.0640195c-.0600297.2560782-.0600297.5121563.0600297.6401954.0600297.7042148.1200593 1.4084297.180089 2.1126446l-.0600297.0640195c-.4802373.3841172-.360178.832254-.0600296 1.0883321zm3.9019286-7.4262659c-.0600296 0-.1200593 0-.2401187.0640195-.8404154.3841172-1.5607714.8322539-2.2811275 1.4084297-.1200593.0640196-.180089.1920586-.3001483.2560782-.0600297-.7042149-.1200594-1.4084298-.2401187-2.1126446 1.0805341-.6401954 2.1010385-1.2803907 3.1215429-1.9846056.0600297.7682344 0 1.6004884-.0600297 2.3687228zm-2.6413055 3.7771525c.3001483-.3200977.6603264-.6401954 1.0205044-.8962735.4802374-.3841172.9604747-.6401953 1.5007418-.8962735-.0600297.5761758-.180089 1.2163712-.2401187 1.792547-.2401187-.1920586-.540267-.1920586-.8404154.0640195-.4802374.3841172-.9004451.7682344-1.3806825 1.1523516v-.3200977c0-.3200976 0-.6401953-.0600296-.8962734zm.6002967 2.9448985c-.0600297 0-.0600297-.0640195-.0600297-.0640195.4202077-.3200977.8404154-.7042149 1.2606231-1.0243125 0 .0640195-.0600296.128039-.0600296.2560781-.3001484.8322539-.2401187 1.2163711-1.1405638.8322539zm-2.8814243-16.1329225c.9004451-.3200977 2.2210979-.8962735 3.301632-1.0243126-1.0805341.5761758-2.0410088 1.2163712-3.0014836 2.0486251-.1200593-.3200977-.180089-.6401953-.3001484-1.0243125zm4.8023738-.1280391c.1200593-.0640195.180089-.1280391.3001483-.2560781.3001484.4481367.3601781 1.1523516.3001484 1.920586-1.5007418.7682344-2.8814242 1.7925469-4.2621067 2.7528399-.1200593-.6401953-.3001484-1.2163711-.4202077-1.8565664 1.2606231-.8962735 2.6413056-1.792547 4.0820177-2.5607814zm-3.4216913 5.8257776c1.2606231-.7682344 2.6413056-1.5364688 3.841899-2.3687228-.0600297.3841172-.1200594.7682344-.1200594 1.0883321 0 .4481368-.0600296.960293-.0600296 1.4724493-.180089-.1280391-.4202077-.1280391-.6603264 0-.9004451.6401953-1.8008902 1.2163711-2.7013352 1.8565665-.0600297-.6401954-.1800891-1.3444102-.3001484-2.0486251z"/>
  </g>
</svg>
