<svg width="52" height="40" viewBox="0 0 67 50" xmlns="http://www.w3.org/2000/svg">
  <g fill="#FFF" fill-rule="nonzero">
    <path d="M30.6624283 1.61939646c-3.479068 1.00708934-6.8243256 2.48415371-9.9019626 4.36405381-2.2747752 1.40992507-5.4193173 3.22268588-6.7574204 5.63970033-1.338103 2.4170144.1338103 3.7598002 2.0740598 5.0354467 3.4121627 2.2827358 1.338103 6.3782324-2.1409649 7.3181825-2.2747752.6713929-4.75026582.2014179-7.025041-.4028357 0-.6713929-.46833607-1.4099251-1.2711979-1.4770644-6.0214637-.2014179-6.69051523 6.8482075-4.4826452 11.0108434 2.9438267 5.6397003 7.76099767 10.7422863 13.2472202 13.7635543 12.6450737 7.1167647 27.6318279.8728108 38.5373677-6.5796503 9.4336264-6.4453718 18.9341581-19.4032546 11.2400656-30.81693379C57.2906789-.79761795 41.2334423-1.46901084 30.6624283 1.61939646zM62.4423756 25.9909585c-2.4085855 5.3711431-7.0919461 9.3995005-11.842212 12.6221863-5.0847915 3.4241038-10.7048243 6.3782325-16.726288 7.7210183-7.4933771 1.611343-15.2543748.3356965-21.2758385-4.4983324-2.6093009-2.1484572-15.32127983-15.4420365-6.75742034-16.7848223.13381031 0 .20071546-.0671393.26762061-.0671393 3.67978338 1.1413679 7.96171313 2.0141787 11.30697073-.4028357 2.5423958-1.8799001 3.6128782-5.7068396 1.5388185-8.3924112-.5352412-.6713929-1.4050082-.93995-1.9402494-1.5442036-1.5388185-1.6784823.4683361-3.2226859 1.6726288-4.162636 2.4085855-1.87990005 5.0178864-3.42410371 7.8279028-4.6997502 5.5531277-2.41701442 11.7084017-3.55838233 17.7298654-3.02126802 5.4193173.40283574 11.2400656 2.01417868 15.388185 5.70683959 5.0178864 4.36405383 5.4862225 11.54795773 2.8100164 17.52335453z"/>
    <path d="M39.7956307 14.1451552c-.7417441-2.4708428-2.8995453-3.6709664-5.2596403-4.0945394 0-.28238205-.0674313-.63535959-.4045877-.7059551-2.9669766-.84714608-7.8894605-.28238203-8.9683611 3.3885844-1.2137631 4.2357304 4.6527588 6.0006181 7.5523041 6.2124046 2.7646827.282382 8.4289108-.4235731 7.080285-4.8004945zM28.7368998 11.886099c.2022939-.141191.4045877-.2823821.6068816-.4235731-.0674313.8471461.5394503 1.8354832 1.4834883 1.5531012 1.4834883-.4235731 4.5853274-.7059551 5.664228.9177416 1.888076 2.9650113-3.9110146 2.4002472-4.7876213 2.2590562-1.7532134-.3529775-6.0688158-1.6236967-2.9669766-4.3063259zM18.6083679 35.7119741c-.1280322.1276268-.2560644.2552536-.3200805.3828804-.1280322.0638134-.1920483.1914402-.2560644.2552536-.7681933.8295742-1.0882738 1.914402-1.0242577 3.0630432.2560644 2.4887226 2.6886763 4.0840577 5.057272 3.4459236 2.4326118-.638134 3.5849016-3.3821102 2.560644-5.6155792-1.0882737-2.2972824-4.0330143-2.871603-6.0175134-1.5315216zm2.8167084 5.1688854c-2.3045796.5105072-3.0727728-1.8505886-2.1765474-3.3821102.1920483 0 .3840966-.0638134.5121288-.1914402 1.0242576-.7019474 2.6246601-.3828804 3.0727728.8295742.4481127 1.2124546-.1920483 2.4887226-1.4083542 2.7439762zM30.318312 35.671314c-.9366509.8436913.4014218 2.3201511 1.3380727 1.617075.2007109-.1406152.4014218-.2812304.6690364-.351538-1.6725909 1.265537-2.3416273 3.8669186-1.2042655 5.8355316 1.47188 2.4607664 4.8170619 2.9529197 6.9579783 1.1249218 2.3416273-1.9686131 2.5423382-5.5543012.6021327-7.8744524-2.1409164-2.6716892-5.8875201-2.6013816-8.3629546-.351538zm7.2255928 5.5543012c-.8028437 1.6873827-2.6761455 2.2498436-4.1480255 1.1249218-1.6056873-1.265537-1.2711691-3.796611.5352291-4.7106099.5352291-.2812305.4683254-.913999.1338072-1.1952294.8028437-.0703076 1.6056873.0703076 2.2747237.4921533 1.3380727.9139989 1.9402055 2.8123044 1.2042655 4.2887642zM45.1311515 30.0939751c-1.5195217.190236-1.5195217 2.3462433.0690692 2.2828313h.0690692c-.7597609.8243557-1.1051067 2.0291833-.7597609 3.1705989.6906917 2.0291834 3.1771818 3.043775 5.318326 2.0925953 2.0720751-.9511797 2.6936976-3.1705989 1.7267293-5.0095463-1.1741759-2.1560073-3.9369427-2.916951-6.4234328-2.5364792zm4.2822885 5.1997823c-.6216225.7609438-1.8648675.7609438-2.5555592.063412-.9669684-1.0145917-.2072075-2.3462432.9669683-2.8535391.2762767.063412.5525534.190236.8288301.3804719.7597608.4438839 1.3813833 1.5218875.7597608 2.4096552zM60.8958758 20.3289136c-3.5313761-2.6355554-7.9289388-.8356639-11.3270554.9642275-1.265965.6428184-.1998892 2.6998372 1.0660758 2.1213007.5996677-.2571274 1.4658542-.6428184 2.3320408-.9642276-.5330379 1.0927912-.5996676 2.378428-.0666297 3.5997829 1.3992245 3.1498101 5.7301574 3.8569103 8.3287172 1.7356096 2.6651895-1.9284551 2.1321516-5.5925199-.3331487-7.4566931zM56.3650536 26.49997c-2.53193-1.0927913-1.9322623-4.0497558.266519-4.9497015 1.4658542-.0642819 2.8650787.2571273 3.5980058 1.6070459 1.3992245 2.4427098-1.5991137 4.371165-3.8645248 3.3426556z"/>
  </g>
</svg>
