<svg width="70" height="52" viewBox="0 0 74 54" xmlns="http://www.w3.org/2000/svg">
  <g fill="#FFF" fill-rule="nonzero" stroke="#FFF">
    <path d="M2.53707865 52.7595503c1.77977528-4.1258427 2.10337079-8.2516854 5.98651686-11.164045 2.91235959-2.1842696 7.03820229-2.9932584 9.54606739-5.5820224-.0808989 1.6179775-.5662921 3.3977528-.0808989 5.0157303.1617978.5662921.8089888.5662921 1.0516854.0808989.647191-1.294382 1.2943821-2.5887641 2.2651686-3.7213483.3235955-.4044944 1.1325842-.8089888 1.4561798-1.3752809-.4853933 2.1033708.647191 4.2876404 1.5370786 6.3101123.2426966.4853933.9707865.4853933 1.1325843 0 1.6988764-3.7213483 4.1258427-6.552809 7.1191011-9.3033708l.0808989-.0808988c1.2134831 1.5370786 2.9123595 2.7505618 4.6921348 3.6404494 2.7505618 1.3752809 5.905618 2.2651686 8.2516854 4.3685393 3.1550562 2.8314607 3.8022472 6.552809 4.3685393 10.516854.1617978.8898876 1.4561798.8898876 1.6988764.0808988 1.0516854-4.0449438-.8089887-8.4134831-3.7213483-11.3258427-5.0157303-5.0966292-14.5617977-4.3685393-16.2606741-12.5393258-.0808989-.2426966-.4853933-.2426966-.4853933 0v.2426966c-.1617978-1.2134831-.3235955-2.4269663-.1617978-3.5595505.2426967-1.8606742 1.0516854-2.7505618 2.2651686-4.0449438.7280899-.7280899 1.4561798-1.2943821 1.8606741-2.2651686.7280899-1.941573.2426967-4.0449438-1.3752809-5.258427 1.0516854-3.47865164-1.5370786-6.55280894-4.6112359-8.08988759-.4044944-.16179775-.7280899-.32359551-1.1325843-.40449438-1.6988764-.48539326-3.0741573-1.45617978-4.1258427-2.99325843C23.4898876 1.06516827 23.0853933.66067389 22.6.57977501c-1.7797753-.3235955-6.8764045 2.02247191-7.847191.3235955-.3235955-.56629213-1.294382-.08089887-1.0516854.56629214 1.2134831 3.07415731 5.5820225.24269663 7.847191.48539326 1.6988764.24269663 3.4786517 2.34606742 4.9348315 3.15505618 1.4561797.80898876 3.3977528 1.29438202 4.6921348 2.42696629 1.4561798 1.29438202 1.7797753 3.07415732 2.1033708 4.85393262-.0808989 0-.0808989-.0808989-.1617978-.0808989-.4853932-.2426966-.9707865.4044944-.4853932.8089888.647191.5662921 1.294382 1.2134831 1.5370786 2.1033707.7280899 2.8314607-.7280899 3.2359551-2.1842696 4.5303371-.5662922.5662922-1.0516854.7280899-1.3752809 1.5370787-.9707866 2.1033708-.4044944 5.2584269.3235955 7.3617977.0808988.1617978.1617977.1617978.2426966.0808989 0 1.2134831.4044944 2.3460674.9707865 3.3168539-.0808989 0-.1617977.0808989-.2426966.0808989-3.0741573 2.1033708-5.3393259 5.0966292-6.9573034 8.4134832-.4044944-.9707866-.8089887-1.8606742-.9707865-2.9123596-.3235955-2.1842697 1.1325843-3.5595506 2.8314607-4.6921348 1.6179775-1.0516854 3.3977528-1.7797753 4.3685393-3.3977528.0808989-.0808989-.0808989-.2426967-.1617978-.1617978-2.4269662 1.4561798-5.8247191 2.6696629-7.4426966 5.0966292-.1617977.3235955-.3235955.5662922-.4853932.8898877 0-.3235955-.1617978-.4853933-.4044944-.7280899-.4044944-.4044944-.8898877-.8089888-1.3752809-1.2134832v-.2426966c-.4044944-4.4494382-3.7213483-6.0674157-5.0157304-9.8696629-.9707865-2.9123596-.4853932-5.4202247-2.588764-7.5235955.3235955-.1617978.4853933-.4044944.8089888-.8898877 1.4561797-2.3460674-.1617978-3.3168539 2.2651685-6.55280895 1.4561798-1.94157304 3.0741573-3.15505618 1.6988764-5.58202248-.1617977-.24269663-.4853933 0-.4044944.24269663.3235955 1.69887641-1.4561798 3.88314607-2.5078651 4.93483146-.4044944.40449439-.9707866.88988764-1.2134832 1.45617978-.7280899 1.29438206-.4853933 5.17752806-1.8606742 5.58202246-.4853932.1617978-.647191.8089888-.2426966 1.0516854 3.7213483 2.6696629.9707865 5.5820225 2.5887641 8.7370787.3235955.647191 1.0516854 1.2134831 1.5370786 1.6988764 1.9415731 1.941573 3.2359551 3.3977528 3.6404495 6.0674157-.4853933-.2426966-.8898877-.5662921-1.2943821-.7280899-.2426966-.0808989-.4044943.1617978-.2426966.3235955.647191.8089888 1.4561798 1.4561798 2.2651685 2.1842697.2426967.2426966 1.2134832.8089887 1.2134832 1.294382 0 .1617977-.8898877.8089888-1.0516854.9707865-.7280899.7280899-1.294382 1.6179775-1.7797753 2.5887641.1617978-2.4269663 1.1325843-5.258427-1.294382-6.7955057-.4044944-.2426966-.8089888.3235955-.4853933.647191.7280899.8898877.8898877 1.8606742.8898877 2.9123596-1.9415731.1617978-3.5595506 1.1325843-5.3393259 1.8606742C10.54606742 38.8449436 8.2 39.8157301 6.33932584 41.5955053c-2.91235955 2.669663-4.93483146 7.2-4.93483146 11.164045 0 .4044944.88988764.5662921 1.13258427 0z"/>
    <path d="M6.42022472 51.9505615c-.40449438.0808989-.32359551.647191.08089888.647191 11.0831461.0808989 22.3280899-.9707865 33.3303371-2.2651685.8898876-.0808989.8898876-1.5370787 0-1.4561798-11.164045.9707865-22.3280899 1.7797753-33.41123598 3.0741573zM52.4516854 43.0516851c.1617977.4853933.3235955 1.0516854.4044944 1.6179776-.1617978.0808988-.2426967.1617977-.4044944.3235955-.4853933.3235955 0 1.0516854.4853933.7280898l.0808988-.0808988c.0808989.3235955.0808989.647191.0808989.9707865.1617978 1.7797753-.4044944 3.8022472 0 5.5011236.0808989.2426966.3235955.4853932.5662921.4044944h.1617978c.0808989 0 .1617977 0 .2426966-.0808989h.3235955c5.1775281-.9707865 10.6786517-.0808989 15.9370787-.8898877.3235955.4044944.9707865.4853933 1.294382 0 5.3393258-7.5235955-6.6337079-12.5393258-11.4067416-14.9662921-2.1033708-1.0516854-3.1550562-2.1842697-3.235955-4.6921348-.0808989-2.1842697.5662921-.3235955.4044944-2.5887641-.1617978-2.1842696-.9707866-2.3460674.1617977-4.7730337.8089888-1.8606741 1.1325843-3.7213483-1.0516854-4.5303371-.3235955-.0808988-.4853932.4044944-.2426966.4853933.1617977.0808989.2426966.1617978.3235955.3235955-4.3685393 2.0224719-8.4134832 4.6921348-12.1348315 7.6853933-.4853932.4044944.0808989 1.0516854.5662922.7280899 3.8022472-2.7505618 7.6853932-5.258427 11.730337-7.6853933 0 1.7797753-1.4561797 5.0966292-1.3752809 6.552809h-.0808988c-2.9932585.9707865-5.9865169 3.0741573-8.4943821 5.0157303-.5662921.4044944.0808989 1.2134832.6471911.8898877 2.6696629-1.6988764 5.5820224-3.316854 7.9280898-5.3393259.1617978.9707865.4044944 1.8606742.3235955 2.9932585 0 .4044943-.3235955.8898876-.3235955 1.3752808h-.1617977c-1.1325843.1617978-2.2651685.9707866-3.2359551 1.4561798-1.1325842.647191-2.1842696 1.3752809-3.0741573 2.1842697-.1617977-.1617978-.4044944-.3235955-.5662921-.4044944 2.2651685-1.1325843 4.611236-2.588764 6.6337079-4.1258427.2426966-.2426966 0-.647191-.3235955-.4853932-2.3460675.9707865-4.7730338 2.4269662-6.8764045 3.883146-.0808989 0-.0808989.0808989-.0808989.0808989l-.0808989-.0808989c-.9707865-1.0516854-1.3752809-2.5078652-2.1033708-3.7213483 3.316854-2.1842697 6.552809-4.2876404 10.0314607-6.2292135.3235955-.1617977.0808989-.647191-.3235955-.5662921-3.5595506 1.4561798-7.2808989 3.3977528-10.4359551 5.8247191-.8089887-.8089888-1.7797752-1.4561798-1.2134831-2.8314607.0808989-.2426966 0-.5662921-.2426966-.7280899v-.0808989c4.3685393-2.7505617 8.5752809-5.6629213 12.7011236-8.5752809.3235955-.2426966 0-.7280898-.3235956-.4853932-4.3685393 2.6696629-8.7370786 5.4202247-12.9438202 8.3325843-.4044944-.6471911-.647191-1.2134832-.8898876-1.9415731 4.5303371-2.9123595 9.0606741-5.905618 13.752809-8.5752809.3235955-.1617977 0-.7280899-.3235955-.5662921-4.7730337 2.4269663-9.4651686 5.0966292-13.752809 8.2516854-.0808989-.2426966-.0808989-.4044944-.1617978-.5662921 4.3685394-3.6404495 8.8179776-6.7955057 13.5101124-9.869663.8089887.7280899 1.4561798 1.6179776 1.6988764 2.7505618.2426966.9707865 0 1.6988764.4044944 2.6696629.0808988.2426967.4853932.1617978.4853932-.0808988-.2426966-1.6988764.3235955-2.9932585-.4044944-4.611236-.8089887-1.7797753-2.6696629-2.9932584-4.2067415-4.0449438C51.4 8.8314604 49.7011236 7.21348288 47.7595506 7.21348288c-2.0224719 0-5.0966293 2.58876404-6.6337079-.08089888-.3235955-.48539326-1.2134831-.24269663-1.0516854.40449438.4044944 1.77977528 1.7797753 2.26516854 3.2359551 2.18426966-.1617978.16179776-.0808989.56629216.2426966.48539326.4044944-.0808989-1.941573 2.4269663-1.7797753 2.1842697-.2426966.3235955-.647191.5662921-.8898876.8898876-.8089888.9707865-1.1325843 2.1033708-1.3752809 3.3168539-.0808989.4044944-.1617978.7280899-.1617978 1.0516854-.4853932.5662922-.8898876 1.1325843-1.0516854 1.8606742-.0808989.2426966.1617978.4044944.3235955.4853932-.4044944.4044944-.647191 0-.8898876.9707866-.0808989.3235955.0808989.5662921.3235955.7280899 2.9932584 2.2651685 2.588764 6.9573033 5.0157303 9.5460674.2426967.2426966.4044944.4044944.5662922.647191-.2426967.2426966-.5662922.4853932-.8089888.7280899-.4853933.4853932.4044944 1.294382.8898876.1617977H44.2c.3235955.647191.5662921 1.2134832 1.1325843 2.0224719.9707865 1.2943821 2.1842696 2.1842697 3.4786517 3.1550562 1.6179775 1.3752809 2.7505618 2.7505618 3.4786516 4.4494382-.4044943.1617978-.1617977.5662921.1617978.647191zm1.294382-30.741573c0 .4044944-.0808989.5662921-.0808989.9707865-4.6112359 2.3460674-8.9797752 5.4202247-12.7011236 8.8988764-.3235955-.4853932-.7280898-1.2134831-.8898876-1.3752809 4.0449438-2.9932584 8.0898876-5.9865168 12.3775281-8.7370786.2426966-.1617978 0-.4044944-.2426966-.3235955-4.1258427 2.2651685-8.0898877 4.7730337-11.7303371 7.7662921 0-.647191.0808989-1.2134832.0808989-1.8606742 1.3752809-1.294382 3.1550561-2.3460674 4.530337-3.3977528 1.8606742-1.3752809 3.8831461-2.588764 5.7438203-3.9640449.9707865.5662921 1.941573 1.2134831 2.9123595 2.0224719zm-8.6561798-2.91235956c.6471911-.16179775 1.2134832-.24269663 1.7797753-.24269663-.0808989.08089888-.0808989.16179775.0808989.16179775s.3235955.08089888.4044944.08089888c-.8089888.56629216-1.5370787 1.21348316-2.2651686 1.86067416.3235955-.3235955.5662922-.647191.5662922-.9707865-.0808989-.48539328-.3235955-.72808991-.5662922-.88988766zm-4.1258427 6.31011236c.7280899-1.941573 2.022472-2.588764 3.3977529-3.8022472.0808988-.0808989.1617977-.1617977.2426966-.2426966-.9707865.8898876-1.8606742 1.7797753-2.8314607 2.588764-.3235955.3235955.1617978.8089888.4853933.5662922 2.1033708-1.6179776 4.2876404-3.3977529 5.9865168-5.42022476 0-.08089888.0808989-.08089888.0808989-.16179775.647191.16179775 1.294382.40449438 1.941573.72808991-2.588764 1.2134831-4.9348314 2.9932584-7.2 4.6112359-.7280899.5662922-1.5370786 1.0516854-2.3460674 1.6179776.0808989-.0808989.1617978-.2426967.2426966-.4853933zm16.5033708 20.952809c.4853933.4044944 1.0516854.7280899 1.6988764 1.0516854-2.0224719 1.1325843-4.0449438 2.2651685-5.9056179 3.6404494-.2426967-.5662921-.5662922-1.0516854-.8898877-1.5370786 1.6988764-1.1325843 3.3977528-2.1033708 5.0966292-3.1550562zm-3.5595505 6.3910112c-.0808989-.2426966-.0808989-.4044944-.1617978-.647191 2.1033708-1.4561798 4.1258427-2.9932584 6.3101124-4.2876404.7280899.3235955 1.3752809.647191 2.1033708.8898876-2.7505618 1.4561798-5.4202248 3.0741573-8.0089888 4.7730337-.1617978-.1617977-.2426966-.4853932-.2426966-.7280899zm-.4853933 8.6561798c.4044944-.9707865.647191-1.7797753.8089888-2.588764 3.7213483-2.8314607 7.6044944-5.7438203 11.7303371-8.0089888.7280898.4853932 1.3752809.9707865 1.941573 1.5370786-3.1550562 1.8606742-6.4719101 4.2876405-9.2224719 6.8764045-1.6988764.2426967-3.5595506.5662922-4.7730337 1.5370787-.0808989.0808989-.1617978.1617977-.1617978.2426966-.1617977.1617978-.2426966.2426966-.3235955.4044944zm7.847191-2.5078652c.8089888-.647191 1.6179775-1.3752809 2.5078652-2.0224719 1.5370786-1.294382 3.235955-2.5078651 4.6921348-3.8022472.4853933.5662922.8898877 1.0516854 1.1325843 1.6988764-2.0224719 1.0516854-3.8831461 2.2651686-5.3393259 3.964045-.9707865.0808989-1.941573.2426966-2.9123595.3235955-.0808989-.1617978-.0808989-.0808989-.0808989-.1617978zm4.7730337-.3235955c1.2134832-1.1325842 2.5078652-2.1842696 3.8831461-3.1550562.4044944 1.0516854.647191 2.1842697.5662921 3.3977529-1.4561797-.3235956-2.9123595-.3235956-4.4494382-.2426967zm-.8898876-8.2516854c-3.8022472 2.1033708-7.4426966 4.2876405-10.8404494 7.1191012 0-.5662922 0-1.1325843-.0808989-1.8606742 0-.3235955-.0808989-.647191-.0808989-.9707865 2.8314607-1.8606742 5.7438202-3.7213483 8.6561798-5.5011236.3235955.1617977.5662921.2426966.8898876.4044944.5662921.2426966 1.0516854.5662921 1.4561798.8089887zm-15.3707865-3.3168539c.8898876-.7280899 1.8606741-1.3752809 2.7505618-2.0224719.647191-.4044944 1.2134831-.8089888 1.8606741-1.1325843.0808989 0 .647191-.3235955.8898877-.4853932h.1617977c.0808989.647191.2426966 1.1325842.7280899 1.7797752.1617978.1617978.3235955.3235955.4044944.4853933-1.6988764.8898876-3.3168539 2.0224719-4.7730337 3.3168539-.3235955-.4044943-.647191-.7280899-1.0516854-1.1325842-.3235955-.3235955-.647191-.5662922-.9707865-.8089888z"/>
  </g>
</svg>
